<?xml version="1.0" encoding="UTF-8"?><svg xmlns="http://www.w3.org/2000/svg" xmlns:xlink="http://www.w3.org/1999/xlink" height="113.0" preserveAspectRatio="xMidYMid meet" version="1.0" viewBox="6.0 -4.4 87.9 113.0" width="87.9" zoomAndPan="magnify"><linearGradient gradientUnits="userSpaceOnUse" id="a" x1="27.941" x2="72.027" xlink:actuate="onLoad" xlink:show="other" xlink:type="simple" xmlns:xlink="http://www.w3.org/1999/xlink" y1="11.996" y2="88.355"><stop offset="0" stop-color="#641b7f"/><stop offset="1" stop-color="#00d0e1"/></linearGradient><path d="M69.581,56.829c-0.099-0.04-10.35-3.5-13.55-0.334c-0.699,0.701-1.291,1.475-1.771,2.315 c-4.818-3.42-9.522-8.134-12.933-12.967c0.844-0.487,1.63-1.094,2.361-1.827c3.106-3.155-0.347-13.432-0.386-13.532 c-2.518-6.518-10.875-6.662-15.27-2.053c-7.922,8.956,1.85,24.811,10.371,33.31C69.391,91.449,83.34,62.985,69.581,56.829z M71.647,66.167c-1.213,5.43-6.617,6.612-11.193,5.502C47.711,70.262,21.023,44.1,29.938,30.783 c2.815-3.24,8.803-3.789,10.575,0.806c0.897,2.273,2.175,9.16,1.002,10.351c-0.843,0.845-1.829,1.475-2.933,1.873 c-0.432,0.156-0.77,0.502-0.914,0.939c-0.146,0.437-0.083,0.917,0.17,1.302c2.041,3.112,4.5,6.115,7.306,8.927 c2.807,2.814,5.802,5.279,8.904,7.325c0.383,0.254,0.862,0.316,1.298,0.171c0.437-0.146,0.782-0.484,0.938-0.917 c0.397-1.106,1.026-2.095,1.907-2.978c1.152-1.137,8.019,0.143,10.285,1.042C71.1,60.642,72.401,63.551,71.647,66.167z M50,6.036 c-24.242,0-43.964,19.773-43.964,44.078c2.415,58.475,85.522,58.458,87.928,0C93.964,25.809,74.242,6.036,50,6.036z M50,91.184 c-22.588,0-40.964-18.424-40.964-41.07c2.25-54.485,79.686-54.469,81.928,0C90.964,72.76,72.588,91.184,50,91.184z" fill="url(#a)"/></svg>